<svg id="Layer_1" data-name="Layer 1" xmlns="http://www.w3.org/2000/svg" width="70" height="13" viewBox="0 0 70 13"><defs><style>.cls-1{fill:#ff9800;}</style></defs><title>rating-5_0</title><path class="cls-1" d="M12.64,4.68l-1-.14L11,4.45l-.81-.12-1-.14-.44-.9-.36-.74L7.67,1.08a.72.72,0,0,0-1.37,0l-.37.75-.26.52-.4.82-.5,1L4,4.29l-.62.09-.85.12-1.24.18c-.43.07-.72.3-.72.7A.88.88,0,0,0,.89,6L3.39,8.4,2.8,11.81a1.37,1.37,0,0,0,0,.21.8.8,0,0,0,.14.47.63.63,0,0,0,.53.26,1,1,0,0,0,.47-.13l1.27-.67.11-.06,1-.5.36-.19L7,11l.42.22.41.21L8.88,12l1.17.62a.92.92,0,0,0,.46.13.62.62,0,0,0,.52-.26.79.79,0,0,0,.15-.47,1.55,1.55,0,0,0,0-.19L10.57,8.4l.69-.67L13.05,6h0a.86.86,0,0,0,.3-.61C13.35,5,13.06,4.75,12.64,4.68Z"/><path class="cls-1" d="M26.58,4.68l-1-.14-.66-.1-.81-.12-1-.14-.44-.9-.36-.74-.73-1.47a.72.72,0,0,0-1.37,0l-.37.75-.26.52-.4.82-.5,1-.71.1-.62.09-.85.12-1.24.18c-.43.07-.72.3-.72.7a.88.88,0,0,0,.28.6l2.5,2.43-.59,3.41a1.37,1.37,0,0,0,0,.21.8.8,0,0,0,.14.47.63.63,0,0,0,.53.26,1,1,0,0,0,.47-.13l1.27-.67.11-.06,1-.5.36-.19.36-.19.42.22.41.21,1.07.56,1.17.62a.92.92,0,0,0,.46.13.62.62,0,0,0,.52-.26.79.79,0,0,0,.15-.47,1.55,1.55,0,0,0,0-.19L24.52,8.4l.69-.67L27,6h0a.86.86,0,0,0,.3-.61C27.29,5,27,4.75,26.58,4.68Z"/><path class="cls-1" d="M40.66,4.68l-1-.14L39,4.45l-.81-.12-1-.14-.44-.9-.36-.74-.73-1.47a.72.72,0,0,0-1.37,0l-.37.75-.26.52-.4.82-.5,1-.71.1-.62.09-.85.12-1.24.18c-.43.07-.72.3-.72.7a.88.88,0,0,0,.28.6l2.5,2.43-.59,3.41a1.37,1.37,0,0,0,0,.21.8.8,0,0,0,.14.47.63.63,0,0,0,.53.26,1,1,0,0,0,.47-.13l1.27-.67.11-.06,1-.5.36-.19L35,11l.42.22.41.21L36.9,12l1.17.62a.92.92,0,0,0,.46.13.62.62,0,0,0,.52-.26A.79.79,0,0,0,39.2,12a1.55,1.55,0,0,0,0-.19L38.6,8.4l.69-.67L41.08,6h0a.86.86,0,0,0,.3-.61C41.38,5,41.09,4.75,40.66,4.68Z"/><path class="cls-1" d="M54.53,4.68l-1-.14-.66-.1-.81-.12-1-.14-.44-.9-.36-.74-.73-1.47a.72.72,0,0,0-1.37,0l-.37.75-.26.52-.4.82-.5,1-.71.1-.62.09-.85.12-1.24.18c-.43.07-.72.3-.72.7a.88.88,0,0,0,.28.6l2.5,2.43-.59,3.41a1.37,1.37,0,0,0,0,.21.8.8,0,0,0,.14.47.63.63,0,0,0,.53.26,1,1,0,0,0,.47-.13l1.27-.67.11-.06,1-.5.36-.19.36-.19.42.22.41.21,1.07.56,1.17.62a.92.92,0,0,0,.46.13.62.62,0,0,0,.52-.26.79.79,0,0,0,.15-.47,1.55,1.55,0,0,0,0-.19L52.47,8.4l.69-.67L54.95,6h0a.86.86,0,0,0,.3-.61C55.25,5,55,4.75,54.53,4.68Z"/><path class="cls-1" d="M68.41,4.68l-1-.14-.66-.1L66,4.33l-1-.14-.44-.9-.36-.74-.73-1.47a.72.72,0,0,0-1.37,0l-.37.75-.26.52-.4.82-.5,1-.71.1-.62.09-.85.12-1.24.18c-.43.07-.72.3-.72.7a.88.88,0,0,0,.28.6l2.5,2.43-.59,3.41a1.37,1.37,0,0,0,0,.21.8.8,0,0,0,.14.47.63.63,0,0,0,.53.26,1,1,0,0,0,.47-.13L61,11.95l.11-.06,1-.5.36-.19.36-.19.42.22.41.21,1.07.56,1.17.62a.92.92,0,0,0,.46.13.62.62,0,0,0,.52-.26.79.79,0,0,0,.15-.47,1.55,1.55,0,0,0,0-.19L66.34,8.4,67,7.73,68.82,6h0a.86.86,0,0,0,.3-.61C69.12,5,68.84,4.75,68.41,4.68Z"/></svg>
