<svg id="Layer_1" data-name="Layer 1" xmlns="http://www.w3.org/2000/svg" width="70" height="13" viewBox="0 0 70 13"><defs><style>.cls-1{fill:#ff9800;}</style></defs><title>rating-1_0</title><path class="cls-1" d="M27.29,5.37c0-.39-.29-.63-.72-.7L25.33,4.5l-.85-.12-.62-.09-.71-.1-.5-1-.4-.82L22,1.83l-.37-.75a.72.72,0,0,0-1.37,0l-.73,1.47-.36.74-.44.9-1,.14-.81.12-.66.1-1,.14c-.43.07-.72.3-.72.7a.86.86,0,0,0,.3.61h0l1.79,1.74.69.67-.59,3.42a1.56,1.56,0,0,0,0,.19.79.79,0,0,0,.15.47.62.62,0,0,0,.52.26.92.92,0,0,0,.46-.13L19,12l1.07-.56.41-.21.42-.22.36.19.36.19,1,.5.11.06,1.27.67a1,1,0,0,0,.47.13.63.63,0,0,0,.53-.26.8.8,0,0,0,.14-.47,1.37,1.37,0,0,0,0-.21L24.52,8.4,27,6A.88.88,0,0,0,27.29,5.37Zm-.81.08L23.86,8l-.14.14,0,.19.62,3.59v0l0,0-1.28-.67-.11-.06-1-.5-.36-.19-.53-.28-.17-.09-.17.09-.59.31-.41.21-1.07.56L17.5,12h0v0l.62-3.6,0-.19L18,8l-.82-.8L15.37,5.46l0,0h.05l1-.14.66-.1.81-.12L19,4.88l.19,0,.09-.17.53-1.07.36-.74.73-1.48,0,0,0,0,.37.75.26.52.4.82.59,1.19.09.17.19,0,.9.13.62.09.85.12,1.24.18h.06Z"/><path class="cls-1" d="M41.24,5.37c0-.39-.29-.63-.72-.7L39.27,4.5l-.85-.12-.62-.09-.71-.1-.5-1-.4-.82-.26-.52-.37-.75a.72.72,0,0,0-1.37,0l-.73,1.47-.36.74-.44.9-1,.14-.81.12-.66.1-1,.14c-.43.07-.72.3-.72.7a.86.86,0,0,0,.3.61h0l1.79,1.74.69.67-.59,3.42a1.56,1.56,0,0,0,0,.19.79.79,0,0,0,.15.47.62.62,0,0,0,.52.26.92.92,0,0,0,.46-.13L33,12,34,11.44l.41-.21.42-.22.36.19.36.19,1,.5.11.06,1.27.67a1,1,0,0,0,.47.13.63.63,0,0,0,.53-.26.8.8,0,0,0,.14-.47,1.37,1.37,0,0,0,0-.21L38.46,8.4,41,6A.88.88,0,0,0,41.24,5.37Zm-.81.08L37.81,8l-.14.14,0,.19.62,3.59v0l0,0L37,11.29l-.11-.06-1-.5-.36-.19L35,10.26l-.17-.09-.17.09-.59.31-.41.21-1.07.56L31.44,12h0v0L32,8.33l0-.19L31.93,8l-.82-.8L29.31,5.46l0,0h.05l1-.14.66-.1.81-.12,1.18-.17.19,0,.09-.17.53-1.07.36-.74.73-1.48,0,0,0,0,.37.75.26.52.4.82.59,1.19.09.17.19,0,.9.13.62.09.85.12,1.24.18h.06Z"/><path class="cls-1" d="M55.18,5.37c0-.39-.29-.63-.72-.7L53.22,4.5l-.85-.12-.62-.09L51,4.18l-.5-1-.4-.82-.26-.52-.37-.75a.72.72,0,0,0-1.37,0L47.4,2.54,47,3.28l-.44.9-1,.14-.81.12-.66.1-1,.14c-.43.07-.72.3-.72.7a.86.86,0,0,0,.3.61h0l1.79,1.74.69.67-.59,3.42a1.56,1.56,0,0,0,0,.19.79.79,0,0,0,.15.47.62.62,0,0,0,.52.26.92.92,0,0,0,.46-.13L46.92,12,48,11.44l.41-.21.42-.22.36.19.36.19,1,.5.11.06,1.27.67a1,1,0,0,0,.47.13.63.63,0,0,0,.53-.26A.8.8,0,0,0,53,12a1.37,1.37,0,0,0,0-.21L52.4,8.4,54.9,6A.88.88,0,0,0,55.18,5.37Zm-.81.08L51.75,8l-.14.14,0,.19.62,3.59v0l0,0-1.28-.67-.11-.06-1-.5-.36-.19L49,10.26l-.17-.09-.17.09-.59.31-.41.21-1.07.56L45.39,12h0v0L46,8.33l0-.19L45.87,8,45,7.2,43.26,5.46l0,0h.05l1-.14.66-.1.81-.12,1.18-.17.19,0,.09-.17.53-1.07.36-.74.73-1.48,0,0,0,0,.37.75.26.52.4.82.59,1.19.09.17.19,0,.9.13.62.09.85.12,1.24.18h.06Z"/><path class="cls-1" d="M69.12,5.37c0-.39-.29-.63-.72-.7L67.16,4.5l-.85-.12-.62-.09L65,4.18l-.5-1-.4-.82-.26-.52-.37-.75a.72.72,0,0,0-1.37,0l-.73,1.47L61,3.28l-.44.9-1,.14-.81.12-.66.1-1,.14c-.43.07-.72.3-.72.7a.86.86,0,0,0,.3.61h0l1.79,1.74.69.67-.59,3.42a1.56,1.56,0,0,0,0,.19.79.79,0,0,0,.15.47.62.62,0,0,0,.52.26.92.92,0,0,0,.46-.13L60.86,12l1.07-.56.41-.21.42-.22.36.19.36.19,1,.5.11.06,1.27.67a1,1,0,0,0,.47.13.63.63,0,0,0,.53-.26A.8.8,0,0,0,67,12a1.37,1.37,0,0,0,0-.21L66.34,8.4,68.84,6A.88.88,0,0,0,69.12,5.37Zm-.81.08L65.69,8l-.14.14,0,.19.62,3.59v0l0,0-1.28-.67-.11-.06-1-.5-.36-.19-.53-.28-.17-.09-.17.09-.59.31-.41.21-1.07.56L59.33,12h0v0l.62-3.6,0-.19L59.81,8,59,7.2,57.2,5.46l0,0h.05l1-.14.66-.1.81-.12,1.18-.17.19,0,.09-.17.53-1.07L62,2.87l.73-1.48,0,0,0,0,.37.75.26.52.4.82.59,1.19.09.17.19,0,.9.13.62.09.85.12,1.24.18h.06Z"/><path class="cls-1" d="M12.64,4.68l-1-.14L11,4.45l-.81-.12-1-.14-.44-.9-.36-.74L7.67,1.08a.72.72,0,0,0-1.37,0l-.37.75-.26.52-.4.82-.5,1L4,4.29l-.62.09-.85.12-1.24.18c-.43.07-.72.3-.72.7A.88.88,0,0,0,.89,6L3.39,8.4,2.8,11.81a1.37,1.37,0,0,0,0,.21.8.8,0,0,0,.14.47.63.63,0,0,0,.53.26,1,1,0,0,0,.47-.13l1.27-.67.11-.06,1-.5.36-.19L7,11l.42.22.41.21L8.88,12l1.17.62a.92.92,0,0,0,.46.13.62.62,0,0,0,.52-.26.79.79,0,0,0,.15-.47,1.55,1.55,0,0,0,0-.19L10.57,8.4l.69-.67L13.05,6h0a.86.86,0,0,0,.3-.61C13.35,5,13.06,4.75,12.64,4.68Z"/></svg>
