<svg id="Layer_1" data-name="Layer 1" xmlns="http://www.w3.org/2000/svg" width="70" height="13" viewBox="0 0 70 13"><defs><style>.cls-1{fill:#ff9800;}</style></defs><title>rating-4_0</title><path class="cls-1" d="M69.12,5.37c0-.39-.29-.63-.72-.7L67.16,4.5l-.85-.12-.62-.09L65,4.18l-.5-1-.4-.82-.26-.52-.37-.75a.72.72,0,0,0-1.37,0l-.73,1.47L61,3.28l-.44.9-1,.14-.81.12-.66.1-1,.14c-.43.07-.72.3-.72.7a.86.86,0,0,0,.3.61h0l1.79,1.74.69.67-.59,3.42a1.56,1.56,0,0,0,0,.19.79.79,0,0,0,.15.47.62.62,0,0,0,.52.26.92.92,0,0,0,.46-.13L60.86,12l1.07-.56.41-.21.42-.22.36.19.36.19,1,.5.11.06,1.27.67a1,1,0,0,0,.47.13.63.63,0,0,0,.53-.26A.8.8,0,0,0,67,12a1.37,1.37,0,0,0,0-.21L66.34,8.4,68.84,6A.88.88,0,0,0,69.12,5.37Zm-.81.08L65.69,8l-.14.14,0,.19.62,3.59v0l0,0-1.28-.67-.11-.06-1-.5-.36-.19-.53-.28-.17-.09-.17.09-.59.31-.41.21-1.07.56L59.33,12h0v0l.62-3.6,0-.19L59.81,8,59,7.2,57.2,5.46l0,0h.05l1-.14.66-.1.81-.12,1.18-.17.19,0,.09-.17.53-1.07L62,2.87l.73-1.48,0,0,0,0,.37.75.26.52.4.82.59,1.19.09.17.19,0,.9.13.62.09.85.12,1.24.18h.06Z"/><path class="cls-1" d="M12.64,4.68l-1-.14L11,4.45l-.81-.12-1-.14-.44-.9-.36-.74L7.67,1.08a.72.72,0,0,0-1.37,0l-.37.75-.26.52-.4.82-.5,1L4,4.29l-.62.09-.85.12-1.24.18c-.43.07-.72.3-.72.7A.88.88,0,0,0,.89,6L3.39,8.4,2.8,11.81a1.37,1.37,0,0,0,0,.21.8.8,0,0,0,.14.47.63.63,0,0,0,.53.26,1,1,0,0,0,.47-.13l1.27-.67.11-.06,1-.5.36-.19L7,11l.42.22.41.21L8.88,12l1.17.62a.92.92,0,0,0,.46.13.62.62,0,0,0,.52-.26.79.79,0,0,0,.15-.47,1.55,1.55,0,0,0,0-.19L10.57,8.4l.69-.67L13.05,6h0a.86.86,0,0,0,.3-.61C13.35,5,13.06,4.75,12.64,4.68Z"/><path class="cls-1" d="M26.58,4.68l-1-.14-.66-.1-.81-.12-1-.14-.44-.9-.36-.74-.73-1.47a.72.72,0,0,0-1.37,0l-.37.75-.26.52-.4.82-.5,1-.71.1-.62.09-.85.12-1.24.18c-.43.07-.72.3-.72.7a.88.88,0,0,0,.28.6l2.5,2.43-.59,3.41a1.37,1.37,0,0,0,0,.21.8.8,0,0,0,.14.47.63.63,0,0,0,.53.26,1,1,0,0,0,.47-.13l1.27-.67.11-.06,1-.5.36-.19.36-.19.42.22.41.21,1.07.56,1.17.62a.92.92,0,0,0,.46.13.62.62,0,0,0,.52-.26.79.79,0,0,0,.15-.47,1.55,1.55,0,0,0,0-.19L24.52,8.4l.69-.67L27,6h0a.86.86,0,0,0,.3-.61C27.29,5,27,4.75,26.58,4.68Z"/><path class="cls-1" d="M40.66,4.68l-1-.14L39,4.45l-.81-.12-1-.14-.44-.9-.36-.74-.73-1.47a.72.72,0,0,0-1.37,0l-.37.75-.26.52-.4.82-.5,1-.71.1-.62.09-.85.12-1.24.18c-.43.07-.72.3-.72.7a.88.88,0,0,0,.28.6l2.5,2.43-.59,3.41a1.37,1.37,0,0,0,0,.21.8.8,0,0,0,.14.47.63.63,0,0,0,.53.26,1,1,0,0,0,.47-.13l1.27-.67.11-.06,1-.5.36-.19L35,11l.42.22.41.21L36.9,12l1.17.62a.92.92,0,0,0,.46.13.62.62,0,0,0,.52-.26A.79.79,0,0,0,39.2,12a1.55,1.55,0,0,0,0-.19L38.6,8.4l.69-.67L41.08,6h0a.86.86,0,0,0,.3-.61C41.38,5,41.09,4.75,40.66,4.68Z"/><path class="cls-1" d="M54.53,4.68l-1-.14-.66-.1-.81-.12-1-.14-.44-.9-.36-.74-.73-1.47a.72.72,0,0,0-1.37,0l-.37.75-.26.52-.4.82-.5,1-.71.1-.62.09-.85.12-1.24.18c-.43.07-.72.3-.72.7a.88.88,0,0,0,.28.6l2.5,2.43-.59,3.41a1.37,1.37,0,0,0,0,.21.8.8,0,0,0,.14.47.63.63,0,0,0,.53.26,1,1,0,0,0,.47-.13l1.27-.67.11-.06,1-.5.36-.19.36-.19.42.22.41.21,1.07.56,1.17.62a.92.92,0,0,0,.46.13.62.62,0,0,0,.52-.26.79.79,0,0,0,.15-.47,1.55,1.55,0,0,0,0-.19L52.47,8.4l.69-.67L54.95,6h0a.86.86,0,0,0,.3-.61C55.25,5,55,4.75,54.53,4.68Z"/></svg>
